<svg version="1.1" xmlns="http://www.w3.org/2000/svg" width="1265" height="1024" viewBox="0 0 1265 1024">
    <g id="upload-icon">
    </g>
    <path fill="#000"
          d="M542.118 15.059c152.275 0 282.473 94.148 335.721 227.328l-1.065 0.102c8.788-1.039 17.731-1.573 26.799-1.573 124.751 0 225.882 101.131 225.882 225.882 0 12.278-0.98 24.326-2.694 34.781l1.333 0.7c81.794 46.664 136.934 134.694 136.934 235.603 0 149.702-121.357 271.059-271.059 271.059-0.031 0-0.061 0-0.087 0h-677.647c-174.652 0-316.235-141.583-316.235-316.235v0.004c0-0.024 0-0.049 0-0.073 0-125.874 73.543-234.572 181.911-286.289-0.783-9.848-1.205-19.817-1.205-29.877 0-199.59 161.822-361.412 361.412-361.412zM677.647 376.471c0-24.95-20.226-45.176-45.176-45.176s-45.176 20.226-45.176 45.176v0 297.532l-103.605-103.605c-8.114-7.838-19.178-12.667-31.37-12.667-24.95 0-45.176 20.226-45.176 45.176 0 12.207 4.841 23.283 12.708 31.412l180.694 180.694c8.173 8.163 19.459 13.212 31.925 13.212s23.751-5.049 31.925-13.212v0l180.706-180.706c7.855-8.118 12.697-19.193 12.697-31.4 0-24.95-20.226-45.176-45.176-45.176-12.192 0-23.255 4.829-31.383 12.68l-103.592 103.592v-297.532z"/>
</svg>
